# xmcd CD database file
#
# Track frame offsets:
#	150
#	22832
#	34412
#	47275
#	63835
#	79310
#	90532
#	106502
#	122777
#	140127
#	161045
#	180772
#	207350
#	231142
#	260375
#	296377
#
# Disc length: 4329 seconds
#
# Revision: 0
# Processed by: cddbd v1.5.2PL0 Copyright (c) Steve Scherf et al.
# Submitted via: CDex 1.51
#
DISCID=cc10e710
DTITLE=The Coolbone Brass Band and Coolbone Swing Troop - The Coolbone Brass Band and Coolbone Swing Troop
DYEAR=1995
DGENRE=Jazz
TTITLE0=See See Rider
TTITLE1=Jazzitize
TTITLE2=Sweet, Sweet Spirit
TTITLE3=Let Me Call You Sweetheart
TTITLE4=Tromboniana
TTITLE5=Jesus Keeps Me Near The Cross
TTITLE6=Down In Hooky Tonk Town
TTITLE7=Somebody Else Is Taking My Place
TTITLE8=Exactly Like You
TTITLE9=Baby Wont You Please Come Home
TTITLE10=Bird Be Free
TTITLE11=Won't You Stay With Me
TTITLE12=Coolbones Bounce
TTITLE13=Blow That Horn
TTITLE14=It All Started Here
TTITLE15=Long Walk Home
EXTD=YEAR: 1995
EXTT0=
EXTT1=
EXTT2=
EXTT3=
EXTT4=
EXTT5=
EXTT6=
EXTT7=
EXTT8=
EXTT9=
EXTT10=
EXTT11=
EXTT12=
EXTT13=
EXTT14=
EXTT15=
PLAYORDER=
